<svg width="124" height="145" viewBox="0 0 124 145" fill="none" xmlns="http://www.w3.org/2000/svg">
<g clip-path="url(#clip0_21_373)">
<path d="M87.3423 275.7C127.134 286.073 138.04 240.813 137.601 232.526C137.168 224.245 128.528 214.892 127.224 229.273C125.921 243.666 102.497 269.272 70.5481 251.057C38.6045 232.848 31.4659 190.661 16.3052 177.462C1.14957 164.269 -5.24683 145.842 17.7632 170.814C40.7675 195.78 84.6679 196.671 89.1395 183.485C93.6004 170.298 81.4184 163.857 65.2879 171.26C49.1632 178.67 -12.4538 148.445 2.24802 94.4868C16.9436 40.5335 10.3197 10.3244 10.3197 10.3244C10.3197 10.3244 40.5344 16.9432 94.4877 2.24653C148.441 -12.4502 178.671 49.1623 171.261 65.2859C163.852 81.4214 183.481 101.05 196.673 96.5838C209.859 92.1229 195.776 40.7717 170.81 17.7673C145.837 -5.24265 164.27 1.14867 177.463 16.3043C190.662 31.4655 232.843 38.6092 251.058 70.5472C269.273 102.496 243.662 125.925 229.274 127.223C214.887 128.532 220.994 146.412 229.281 146.851C237.568 147.29 286.068 127.139 275.696 87.347C265.335 47.5558 341.982 169.371 213.146 213.151C169.372 341.982 47.5562 265.334 87.3423 275.7ZM94.5775 194.304C92.0103 195.31 90.9548 198.271 92.2209 200.921C93.4869 203.57 96.596 204.904 99.158 203.893C101.725 202.887 102.781 199.926 101.515 197.276C100.249 194.626 97.139 193.293 94.5775 194.304ZM86.1067 37.701C79.1792 36.3503 83.9144 47.2189 92.4156 53.1281C100.923 59.043 107.171 82.578 116.351 83.9716C125.526 85.3715 111.828 67.3563 108.913 51.327C105.992 35.3027 86.1067 37.701 86.1067 37.701ZM222.907 177.177C231.786 173.694 237.244 167.226 235.092 162.73C232.94 158.234 223.997 157.417 215.125 160.905C206.246 164.387 200.788 170.856 202.94 175.352C205.091 179.848 214.035 180.664 222.907 177.177ZM76.0848 99.8503C71.182 94.9474 58.2989 82.8692 47.918 86.1199C37.5422 89.365 45.3001 100.334 49.1728 101.801C53.0511 103.273 84.9947 108.76 76.0848 99.8503ZM123.203 194.739C121.96 187.382 136.243 175.591 130.951 169.309C125.666 163.032 120.942 177.711 110.286 184.888C99.635 192.071 115.385 203.866 115.385 203.866C119.137 208.703 124.446 202.085 123.203 194.739Z" fill="url(#paint0_linear_21_373)"/>
<path d="M87.3426 275.7C127.134 286.073 138.041 240.813 137.602 232.526C137.168 224.245 128.529 214.892 127.225 229.273C125.921 243.666 102.497 269.272 70.5484 251.057C38.6048 232.848 31.4661 190.661 16.3054 177.462C1.14984 164.269 -5.24655 145.842 17.7634 170.814C40.7678 195.78 84.6682 196.671 89.1398 183.485C93.6007 170.298 81.4186 163.857 65.2882 171.261C49.1635 178.67 -12.4535 148.445 2.24828 94.4869C16.9438 40.5335 10.32 10.3245 10.32 10.3245L213.146 213.151C169.372 341.982 47.5565 265.334 87.3426 275.7ZM94.5778 194.304C92.0106 195.31 90.9551 198.271 92.2212 200.921C93.4872 203.57 96.5963 204.904 99.1583 203.893C101.725 202.887 102.781 199.926 101.515 197.276C100.249 194.626 97.1393 193.293 94.5778 194.304ZM76.0851 99.8503C71.1823 94.9474 58.2992 82.8693 47.9183 86.1199C37.5425 89.365 45.3003 100.334 49.173 101.801C53.0514 103.273 84.995 108.76 76.0851 99.8503ZM123.203 194.739C121.96 187.382 136.243 175.591 130.952 169.309C125.666 163.032 120.942 177.711 110.286 184.888C99.6353 192.071 115.385 203.866 115.385 203.866C119.137 208.703 124.446 202.085 123.203 194.739Z" fill="url(#paint1_linear_21_373)"/>
<path d="M100.993 97.6991C99.3687 95.2719 97.7933 92.8837 96.3415 90.4408C94.875 88.0119 93.4752 85.5752 92.2182 83.104C90.9707 80.6334 89.7622 78.1633 88.8004 75.6498C88.5334 75.0272 88.3234 74.3956 88.0931 73.7685C87.8769 73.1397 87.6133 72.5165 87.4468 71.8827L86.8637 69.9934L86.2626 67.958C84.6195 62.4918 82.1974 57.0166 78.8259 52.0641C75.4601 47.0952 71.2255 42.8364 66.636 39.2183C69.9758 44.0252 73.3112 48.6542 75.8614 53.5306C78.4511 58.3877 80.3844 63.4424 81.9519 68.6179L82.557 70.5771L83.2394 72.6735C83.4556 73.3762 83.766 74.0513 84.0319 74.7377C84.3107 75.4212 84.5664 76.1121 84.9034 76.7737L85.8596 78.7758C86.2016 79.4322 86.5663 80.0791 86.9202 80.7288C87.2662 81.3824 87.6574 82.0129 88.0435 82.6451C88.4335 83.2756 88.8151 83.9089 89.2367 84.5197C90.8674 86.9925 92.6799 89.344 94.6391 91.5584C96.6141 93.7547 98.6795 95.8765 100.993 97.6991Z" fill="url(#paint2_linear_21_373)"/>
<path d="M147.896 150.649C146.007 149.266 144.044 148.049 142.038 146.969C140.031 145.899 138.006 144.903 135.93 144.14C131.806 142.544 127.595 141.536 123.484 141.289C122.45 141.149 121.441 141.249 120.426 141.234C119.404 141.196 118.416 141.337 117.424 141.441L115.938 141.596L114.496 141.905C113.527 142.125 112.589 142.263 111.589 142.566C107.637 143.63 103.677 144.76 99.6448 145.791C97.6229 146.294 95.5886 146.781 93.5266 147.22C91.4574 147.638 89.3694 148.029 87.2471 148.329C82.9973 148.908 78.616 149.213 74.1337 148.876C69.6643 148.578 65.103 147.612 60.7398 145.937C58.566 145.059 56.4403 144.05 54.4054 142.865C52.3751 141.667 50.4441 140.305 48.6209 138.825C50.6755 139.899 52.7239 140.913 54.8085 141.756C56.8981 142.579 58.9933 143.3 61.1033 143.831C65.322 144.886 69.5407 145.373 73.6849 145.321C81.9931 145.265 89.9457 143.401 97.9 141.394C101.886 140.395 105.875 139.322 109.957 138.399C110.945 138.147 112.094 138.005 113.166 137.816L114.8 137.557L116.486 137.476C117.609 137.428 118.721 137.335 119.87 137.451C121.012 137.547 122.142 137.534 123.288 137.763C127.855 138.4 132.386 139.942 136.573 142.155C138.668 143.261 140.682 144.534 142.586 145.95C144.489 147.362 146.301 148.913 147.896 150.649Z" fill="url(#paint3_linear_21_373)"/>
<path d="M98.3533 100.339C95.9261 98.7141 93.5379 97.1387 91.095 95.6869C88.6661 94.2204 86.2294 92.8206 83.7582 91.5636C81.2876 90.3161 78.8175 89.1076 76.304 88.1458C75.6814 87.8788 75.0498 87.6688 74.4227 87.4385C73.7939 87.2223 73.1707 86.9587 72.5368 86.7922L70.6476 86.2097L68.6122 85.6086C63.146 83.9654 57.6708 81.5434 52.7183 78.1719C47.7494 74.806 43.4901 70.5715 39.8725 65.9819C44.6794 69.3218 49.3084 72.6572 54.1848 75.2074C59.0419 77.7971 64.0966 79.7303 69.272 81.2978L71.2313 81.9029L73.3276 82.5854C74.0298 82.8015 74.7055 83.112 75.3918 83.3773C76.0754 83.6561 76.7663 83.9118 77.4278 84.2488L79.43 85.205C80.0864 85.547 80.7333 85.9117 81.383 86.2656C82.0366 86.6116 82.6671 87.0028 83.2993 87.3889C83.9298 87.7789 84.5631 88.1605 85.1738 88.5821C87.6467 90.2128 89.9982 92.0253 92.2126 93.9845C94.4094 95.9601 96.5312 98.0254 98.3533 100.339Z" fill="url(#paint4_linear_21_373)"/>
<path d="M10.8995 9.73914C10.8995 9.73914 187.747 180.316 253.814 250.733C254.929 251.923 254.988 253.683 253.951 254.72C252.884 255.787 251.057 255.688 249.876 254.495C227.079 231.491 29.5271 32.0328 10.8995 9.73914Z" fill="url(#paint5_linear_21_373)"/>
</g>
<defs>
<linearGradient id="paint0_linear_21_373" x1="2.88283" y1="2.88725" x2="275.225" y2="275.226" gradientUnits="userSpaceOnUse">
<stop offset="0.003" stop-color="#FFE000"/>
<stop offset="0.142" stop-color="#DCDE00"/>
<stop offset="0.274" stop-color="#C3DD00"/>
<stop offset="0.393" stop-color="#B4DC00"/>
<stop offset="0.491" stop-color="#AFDC00"/>
<stop offset="0.577" stop-color="#ABD700"/>
<stop offset="0.679" stop-color="#A0C900"/>
<stop offset="0.788" stop-color="#8DB100"/>
<stop offset="0.903" stop-color="#739000"/>
<stop offset="1" stop-color="#586E00"/>
</linearGradient>
<linearGradient id="paint1_linear_21_373" x1="28.2365" y1="205.98" x2="153.388" y2="80.8282" gradientUnits="userSpaceOnUse">
<stop stop-color="#AFDC00" stop-opacity="0"/>
<stop offset="0.472" stop-color="#84A600" stop-opacity="0.472"/>
<stop offset="1" stop-color="#586E00"/>
</linearGradient>
<linearGradient id="paint2_linear_21_373" x1="91.3156" y1="60.9661" x2="76.3219" y2="75.9598" gradientUnits="userSpaceOnUse">
<stop stop-color="#AFDC00"/>
<stop offset="0.193" stop-color="#ACD800"/>
<stop offset="0.384" stop-color="#A3CC00"/>
<stop offset="0.573" stop-color="#93B800"/>
<stop offset="0.761" stop-color="#7D9D00"/>
<stop offset="0.948" stop-color="#617900"/>
<stop offset="1" stop-color="#586E00"/>
</linearGradient>
<linearGradient id="paint3_linear_21_373" x1="74.9646" y1="168.038" x2="121.583" y2="121.42" gradientUnits="userSpaceOnUse">
<stop stop-color="#AFDC00"/>
<stop offset="0.193" stop-color="#ACD800"/>
<stop offset="0.384" stop-color="#A3CC00"/>
<stop offset="0.573" stop-color="#93B800"/>
<stop offset="0.761" stop-color="#7D9D00"/>
<stop offset="0.948" stop-color="#617900"/>
<stop offset="1" stop-color="#586E00"/>
</linearGradient>
<linearGradient id="paint4_linear_21_373" x1="61.6174" y1="90.6648" x2="76.6111" y2="75.6711" gradientUnits="userSpaceOnUse">
<stop stop-color="#AFDC00"/>
<stop offset="0.193" stop-color="#ACD800"/>
<stop offset="0.384" stop-color="#A3CC00"/>
<stop offset="0.573" stop-color="#93B800"/>
<stop offset="0.761" stop-color="#7D9D00"/>
<stop offset="0.948" stop-color="#617900"/>
<stop offset="1" stop-color="#586E00"/>
</linearGradient>
<linearGradient id="paint5_linear_21_373" x1="141.008" y1="123.658" x2="128.366" y2="136.294" gradientUnits="userSpaceOnUse">
<stop stop-color="#AFDC00"/>
<stop offset="0.193" stop-color="#ACD800"/>
<stop offset="0.384" stop-color="#A3CC00"/>
<stop offset="0.573" stop-color="#93B800"/>
<stop offset="0.761" stop-color="#7D9D00"/>
<stop offset="0.948" stop-color="#617900"/>
<stop offset="1" stop-color="#586E00"/>
</linearGradient>
<clipPath id="clip0_21_373">
<rect width="289" height="289" fill="white" transform="matrix(-1 0 0 1 289 0)"/>
</clipPath>
</defs>
</svg>
